<?xml version="1.0" encoding="UTF-8"?>
<svg id="a" data-name="Livello 3" xmlns="http://www.w3.org/2000/svg" xmlns:xlink="http://www.w3.org/1999/xlink" viewBox="0 0 1200 630">
  <defs>
    <radialGradient id="b" data-name="Sfumatura senza nome 57" cx="308.41" cy="142.19" fx="308.41" fy="142.19" r="249.26" gradientTransform="translate(-77.82 114.14) scale(2.2 1.41)" gradientUnits="userSpaceOnUse">
      <stop offset="0" stop-color="#016985"/>
      <stop offset="1" stop-color="#02838f"/>
    </radialGradient>
  </defs>
  <rect width="1200" height="630" fill="url(#b)" stroke-width="0"/>
  <g>
    <g>
      <path d="m93.54,106.06c-1.46.59-2.92-.52-3.17-2.1-.18-1.51.18-2.87.5-4.34.25-.99.57-1.99.32-3.02-.39-1.88-1.5-2.1-2.89-1.55-1.43.59-2.46,1.58-2.96,3.17-.18.66-.07,1.25.21,1.8.39-.26.78-.66,1.21-.74.39-.11.93-.15,1.21.04.25.15.39.7.32,1.1-.25,1.95-2.1,2.84-3.67,2.5-.96-.26-1.21-1.14-1.46-1.95-.46-1.88.14-3.5,1.03-5.01,1.21-2.03,3.03-3.24,5.14-3.98,1.46-.48,2.96-.55,4.35.26,1.78.99,2.35,3.57,1.21,5.38-.71,1.14-1.53,2.25-2.25,3.42-.39.59-.57,1.33-.93,1.99-.64,1.33.32,2.58,1.36,2.98.18-.04.25-.04.46.04Z" fill="#fff" stroke-width="0"/>
      <path d="m96.86,109.26c-.43.18-1.07.55-1.68.85-.39.15-.86.11-1.07-.29-.14-.29-.11-.7,0-.99.5-1.51,1.68-1.99,3.03-2.25.5-.11.68.15.68.66.04.74-.32,1.29-.96,2.03Z" fill="#fff" stroke-width="0"/>
      <path d="m151.21,113.68c-1.5-.88-1.64-3.02-.39-4.38,1.14-1.25,2.6-1.84,4.1-2.54,1-.52,2.1-.85,2.89-1.8,1.36-1.69.86-2.84-.64-3.72s-3.07-1.14-4.78-.52c-.71.29-1.11.81-1.46,1.4.54.18,1.07.26,1.5.55.39.26.71.74.78,1.14.04.33-.32.85-.68,1.03-1.82,1.14-3.89.04-4.64-1.66-.5-1.03.14-1.88.68-2.69,1.25-1.73,3.07-2.28,4.99-2.5,2.6-.29,4.92.55,7.03,1.99,1.46.99,2.5,2.32,2.78,4.12.32,2.32-1.46,4.64-3.82,4.82-1.5.15-3,.15-4.53.29-.78.11-1.53.41-2.35.55-1.61.33-1.96,2.03-1.68,3.28.11.29.18.44.21.63Z" fill="#fff" stroke-width="0"/>
      <path d="m150.79,118.94c-.5-.26-1.21-.55-1.89-.96-.43-.26-.68-.7-.5-1.14.18-.29.54-.59.89-.66,1.64-.59,2.89.18,3.99,1.25.39.33.32.74-.11,1.1-.61.41-1.32.48-2.39.41Z" fill="#fff" stroke-width="0"/>
      <path d="m134.63,96.12c-1.11-.66-1.14-2.17-.29-3.17.82-.88,1.93-1.33,2.92-1.84.71-.33,1.53-.66,2.07-1.29,1-1.25.64-2.1-.43-2.72-1.07-.66-2.25-.85-3.46-.33-.54.18-.82.55-1,.99.39.15.78.18,1.07.41.25.18.54.55.57.85.04.26-.25.59-.5.81-1.36.85-2.85,0-3.39-1.18-.32-.81.11-1.4.5-1.95.93-1.25,2.21-1.66,3.67-1.8,1.89-.18,3.57.41,5.1,1.44,1.07.7,1.82,1.69,2.03,3.02.25,1.69-1.07,3.35-2.75,3.5-1.11.11-2.18.11-3.28.18-.57.04-1.11.29-1.68.41-1.14.26-1.46,1.51-1.21,2.39,0,.07,0,.15.04.29Z" fill="#fff" stroke-width="0"/>
      <path d="m134.34,99.94c-.32-.15-.86-.41-1.39-.7-.29-.15-.5-.52-.32-.85.11-.26.39-.44.64-.52,1.14-.41,2.07.15,2.92.88.29.26.25.55-.04.81-.57.37-1.11.37-1.82.37Z" fill="#fff" stroke-width="0"/>
      <path d="m158.31,128.37c-.71-1.8-2.03-3.09-3.75-3.72-1.39-.55-2.92-.81-4.42-1.18-1.46-.41-2.71,0-3.67,1.1-.71.81-1.25,1.73-1.82,2.69-.68,1.18-1.64,1.88-3,1.8-1.28-.04-2.21-.96-3.07-1.8-.57-.59-.39-1.29-.04-1.99.43-.88.82-1.8,1.21-2.65.25-.55.5-1.1.86-1.55,1.07-1.18,2.25-2.25,3.28-3.42,2.07-2.54,2.92-5.49,2.18-8.76-.96-3.87-3.57-5.38-7.28-4.68-1.68.29-3.39.74-5.06,1.14-.96.18-1.53,0-1.93-.99-1.11-2.69-3.07-4.57-5.31-6.22-1.21-.88-2.03-1.84-1.68-3.5.64-3.09-2.21-5.96-5.17-5.23-1.61.44-2.57,1.99-2.43,3.35.18,1.51-.25,2.28-1.61,2.5-1.61.22-3.03.81-4.49,1.66-1.82,1.1-2.6,1.03-4.03-.66-.43-.55-.93-1.03-1.36-1.58-.93-1.03-2.03-1.14-3.17-.66-1.28.55-2.25,1.51-2.43,3.02-.14,1.8,1.28,3.98,3.03,4.57.68.26,1.39.59,1.53,1.44.11.7.11,1.51,0,2.17-.25,2.17-.64,4.34-.29,6.52.29,1.99.64,3.98,1.61,5.71,1.14,2.03,2.5,3.98,3.82,5.96.68,1.03.29,2.39-.86,2.72-1.28.33-2.64.52-3.99.66-.68.11-1.25-.52-1.36-1.18-.14-.85-.29-1.69-.5-2.5-.39-1.8-2.57-3.28-4.24-3.02-.96.15-1.96.26-2.92.29-2.03.15-3.96.85-5.64,1.95-.68.44-1.25,1.25-1.11,2.1.32,1.58,1.11,2.95,2.43,3.94,2.21,1.69,3.96,3.83,4.99,6.52.71,1.84,1.93,3.39,3.42,4.57,1.07.81,2.18,1.51,3.25,2.25,1.11.81,1.46,1.95.82,2.98-1.78,2.98-2.18,6.33-2.35,9.68-.11,1.66.32,3.35.57,5.01.39,2.84,1.11,5.56,2.6,8.03.57.88.78,1.88.78,2.98-.04,1.25.04,2.5.43,3.72.5,1.44.14,2.58-1.21,3.5-1.25.85-1.93,2.28-1.78,3.79.18,1.73,1,3.17,2.5,4.23,2.64,1.84,5.46,2.43,8.42,1.33,1.11-.41,2.1-.99,3.14-1.66,1.14-.81,2.5-.85,3.32.29.29.41.68.7,1,1.1,2.25,2.32,4.92,3.65,8.35,3.5.5,0,1.14.11,1.82,0,.64-.11,1.25-.41,1.82-.59,1.39-.52,2.64-2.28,2.5-3.65-.18-1.33-.32-2.72-.71-4.01-.5-1.66-.43-3.09.71-4.42.29-.33.43-.81.64-1.25.78-1.69.54-3.5.64-5.23.04-.66.25-1.29.54-1.88.82-1.69,1.82-3.28,2.5-5.08,1-2.72,1.46-5.56,1.11-8.54-.18-1.8-.32-3.65-.96-5.34-.5-1.29-1.14-2.54-1.64-3.83-.43-1.03.11-1.58,1.14-1.73,1.25-.18,2.64-.33,3.75-.96,2.89-1.55,5.21-3.83,7.24-6.52.96-1.25,2.21-2.32,3.46-3.24,1.68-1.18,2.89-2.72,3.75-4.57.21-.37.29-.77.14-.99Zm-43.87-18.48c-1.07,0-1.93-1.25-1.93-2.72s.86-2.72,1.93-2.72,1.93,1.25,1.93,2.72-.86,2.72-1.93,2.72Zm8.06-3.46c-1.07,0-1.93-1.25-1.93-2.72s.86-2.72,1.93-2.72,1.93,1.25,1.93,2.72-.86,2.72-1.93,2.72Z" fill="#fff" stroke-width="0"/>
    </g>
    <g>
      <path d="m191.38,162.56c-2.81,0-5.25-.45-7.32-1.33s-3.69-2.21-4.85-3.96c-1.16-1.75-1.77-3.9-1.83-6.46h6.98c.09,1.21.45,2.23,1.06,3.04.61.82,1.43,1.43,2.44,1.83,1.02.4,2.17.61,3.46.61s2.4-.19,3.35-.57c.95-.38,1.69-.92,2.22-1.61.53-.7.8-1.5.8-2.43,0-.83-.24-1.52-.72-2.08-.48-.56-1.16-1.04-2.06-1.44-.89-.4-1.98-.76-3.27-1.07l-3.86-1c-2.96-.74-5.28-1.91-6.96-3.51-1.68-1.59-2.52-3.7-2.52-6.32,0-2.18.57-4.09,1.7-5.73,1.14-1.63,2.7-2.9,4.68-3.81,1.98-.91,4.24-1.36,6.78-1.36s4.84.46,6.77,1.37c1.93.92,3.43,2.18,4.51,3.81,1.08,1.63,1.64,3.5,1.67,5.62h-6.94c-.13-1.46-.73-2.58-1.8-3.37-1.07-.79-2.5-1.19-4.29-1.19-1.21,0-2.24.18-3.1.53-.86.36-1.52.85-1.96,1.48-.45.63-.67,1.35-.67,2.16,0,.89.26,1.63.78,2.22.52.59,1.21,1.07,2.07,1.43.86.36,1.78.67,2.75.91l3.17.8c1.47.34,2.84.8,4.11,1.38,1.27.58,2.38,1.3,3.34,2.15.96.85,1.7,1.86,2.22,3.02.52,1.16.79,2.51.79,4.03,0,2.18-.53,4.09-1.6,5.71-1.07,1.63-2.61,2.88-4.63,3.77-2.02.89-4.45,1.33-7.29,1.33Z" fill="#fff" stroke-width="0"/>
      <path d="m218.95,162.37c-1.82,0-3.41-.41-4.77-1.23-1.36-.82-2.42-1.99-3.16-3.52-.74-1.53-1.12-3.35-1.12-5.47v-17.25h7.05v15.99c0,1.68.42,3,1.27,3.96.85.96,2.01,1.43,3.48,1.43,1,0,1.89-.22,2.66-.67s1.37-1.09,1.8-1.94c.43-.85.65-1.87.65-3.07v-15.7h7.08v27.13h-6.68l-.09-6.77h.4c-.69,2.28-1.74,4.04-3.16,5.27s-3.22,1.84-5.4,1.84Z" fill="#fff" stroke-width="0"/>
      <path d="m239.88,162.03v-27.13h6.82v4.73h.28c.49-1.68,1.3-2.95,2.43-3.81,1.14-.86,2.44-1.29,3.91-1.29.36,0,.75.02,1.18.06.42.04.79.1,1.1.18v6.5c-.31-.11-.77-.2-1.36-.27-.6-.06-1.16-.1-1.69-.1-1.07,0-2.03.24-2.89.72-.86.48-1.53,1.14-2.01,1.99s-.72,1.84-.72,2.97v15.44h-7.05Z" fill="#fff" stroke-width="0"/>
      <path d="m260.23,172.17v-37.28h6.94v4.56h.33c.33-.71.8-1.45,1.4-2.21.6-.76,1.4-1.4,2.39-1.92.99-.52,2.23-.78,3.71-.78,1.94,0,3.72.52,5.34,1.55,1.61,1.04,2.9,2.59,3.87,4.66.96,2.07,1.45,4.65,1.45,7.74s-.47,5.55-1.41,7.63-2.22,3.66-3.83,4.73-3.43,1.61-5.45,1.61c-1.43,0-2.63-.25-3.62-.75-.99-.5-1.79-1.12-2.41-1.86s-1.09-1.47-1.42-2.2h-.21v14.49h-7.05Zm12.55-15.53c1.22,0,2.25-.35,3.09-1.04.84-.7,1.47-1.66,1.9-2.89.43-1.23.65-2.64.65-4.22s-.22-2.99-.65-4.2c-.43-1.21-1.06-2.17-1.89-2.86-.83-.7-1.87-1.04-3.1-1.04s-2.23.34-3.08,1.01c-.85.67-1.49,1.61-1.93,2.82-.44,1.21-.66,2.63-.66,4.28s.22,3.06.67,4.28,1.09,2.17,1.94,2.85c.85.68,1.87,1.02,3.06,1.02Z" fill="#fff" stroke-width="0"/>
      <path d="m290.58,162.03v-27.13h6.82v4.73h.28c.49-1.68,1.3-2.95,2.43-3.81,1.14-.86,2.44-1.29,3.91-1.29.36,0,.75.02,1.18.06.42.04.79.1,1.1.18v6.5c-.31-.11-.77-.2-1.36-.27-.6-.06-1.16-.1-1.69-.1-1.07,0-2.03.24-2.89.72-.86.48-1.53,1.14-2.01,1.99s-.72,1.84-.72,2.97v15.44h-7.05Z" fill="#fff" stroke-width="0"/>
      <path d="m314.19,131.35c-1.07,0-1.97-.36-2.73-1.09-.75-.73-1.13-1.61-1.13-2.64s.38-1.92,1.13-2.65c.75-.73,1.66-1.09,2.73-1.09s1.98.36,2.74,1.09c.76.73,1.14,1.61,1.14,2.65s-.38,1.92-1.14,2.64c-.76.73-1.67,1.09-2.74,1.09Zm-3.53,30.68v-27.13h7.05v27.13h-7.05Z" fill="#fff" stroke-width="0"/>
      <path d="m321.69,162.03l10.18-16.77-.02,5.68-9.64-16.04h7.62l2.37,4.27c.75,1.41,1.43,2.79,2.03,4.16.6,1.37,1.22,2.7,1.85,3.99h-2.68c.64-1.28,1.26-2.6,1.86-3.98.6-1.38,1.29-2.77,2.07-4.17l2.47-4.27h7.48l-9.83,16.11v-5.61l10.2,16.62h-7.57l-2.92-5.1c-.77-1.39-1.46-2.77-2.08-4.15s-1.25-2.69-1.89-3.96h2.7c-.61,1.26-1.21,2.58-1.8,3.96-.59,1.38-1.26,2.76-2.01,4.15l-2.92,5.1h-7.48Z" fill="#fff" stroke-width="0"/>
    </g>
  </g>
  <text id="og-username" transform="translate(600 268.82) scale(1.02 1)" text-anchor="middle" fill="#fff" font-family="Inter" font-size="90" font-weight="700">username</text>
  <rect x="182" y="489" width="836" height="60" rx="30" ry="30" fill="#fff" opacity=".2" stroke-width="0"/>
  <text id="og-url" transform="translate(600 531.44) scale(1.02 1)" text-anchor="middle" fill="#fff" font-family="Inter" font-size="40" font-weight="700">surprix.app/u/username</text>
  <g id="og-eggs" transform="translate(0, 0)">
    <text transform="translate(770.48 421.25) scale(1.02 1)" fill="#fff" font-family="Inter" font-weight="700"><tspan font-size="96">4,5</tspan><tspan font-size="48"> /5</tspan></text>
    <path d="m370.45,322.3c-19.13,0-45.9,28.69-45.9,70.13,0,33.79,20.66,57.38,45.9,57.38s45.9-23.59,45.9-57.38c0-41.44-26.78-70.13-45.9-70.13Z" fill="#fff" opacity=".5" stroke="#fff" stroke-miterlimit="10" stroke-width="1.84"/>
    <path d="m478.59,322.3c-19.13,0-45.9,28.69-45.9,70.13,0,33.79,20.66,57.38,45.9,57.38s45.9-23.59,45.9-57.38c0-41.44-26.78-70.13-45.9-70.13Z" fill="#fff" opacity=".5" stroke="#fff" stroke-miterlimit="10" stroke-width="1.84"/>
    <path d="m262.32,322.3c-19.13,0-45.9,28.69-45.9,70.13,0,33.79,20.66,57.38,45.9,57.38s45.9-23.59,45.9-57.38c0-41.44-26.78-70.13-45.9-70.13Z" fill="#fff" opacity=".5" stroke="#fff" stroke-miterlimit="10" stroke-width="1.84"/>
    <path d="m586.72,322.3c-19.13,0-45.9,28.69-45.9,70.13,0,33.79,20.66,57.38,45.9,57.38s45.9-23.59,45.9-57.38c0-41.44-26.78-70.13-45.9-70.13Z" fill="#fff" opacity=".5" stroke="#fff" stroke-miterlimit="10" stroke-width="1.84"/>
    <path d="m694.85,322.3c-19.13,0-45.9,28.69-45.9,70.13,0,33.79,20.66,57.38,45.9,57.38s45.9-23.59,45.9-57.38c0-41.44-26.78-70.13-45.9-70.13Z" fill="#fff" opacity=".5" stroke="#fff" stroke-miterlimit="10" stroke-width="1.84"/>
  </g>
</svg>