<?xml version="1.0" encoding="utf-8"?>
<svg version="1.1" id="Livello_1" xmlns="http://www.w3.org/2000/svg" xmlns:xlink="http://www.w3.org/1999/xlink" x="0px" y="0px"
	 viewBox="0 0 220 220" style="enable-background:new 0 0 220 220;" xml:space="preserve">
<style type="text/css">
	.st1{fill:#FFFFFF;}
</style>
<g transform="translate(38.5 38.5) scale(0.65)">
	<path class="st1" d="M26.7,24.5c-4.1,1.6-8.2-1.4-8.9-5.7c-0.5-4.1,0.5-7.8,1.4-11.8c0.7-2.7,1.6-5.4,0.9-8.2
		C19-6.3,15.9-6.9,12-5.4C8-3.8,5.1-1.1,3.7,3.2C3.2,5,3.5,6.6,4.3,8.1c1.1-0.7,2.2-1.8,3.4-2c1.1-0.3,2.6-0.4,3.4,0.1
		c0.7,0.4,1.1,1.9,0.9,3c-0.7,5.3-5.9,7.7-10.3,6.8c-2.7-0.7-3.4-3.1-4.1-5.3C-3.7,5.6-2,1.2,0.5-2.9C3.9-8.4,9-11.7,14.9-13.7
		C19-15,23.2-15.2,27.1-13c5,2.7,6.6,9.7,3.4,14.6c-2,3.1-4.3,6.1-6.3,9.3c-1.1,1.6-1.6,3.6-2.6,5.4c-1.8,3.6,0.9,7,3.8,8.1
		C25.9,24.3,26.1,24.3,26.7,24.5z"/>
	<path class="st1" d="M36,33.2c-1.2,0.5-3,1.5-4.7,2.3c-1.1,0.4-2.4,0.3-3-0.8c-0.4-0.8-0.3-1.9,0-2.7c1.4-4.1,4.7-5.4,8.5-6.1
		c1.4-0.3,1.9,0.4,1.9,1.8C38.8,29.7,37.8,31.2,36,33.2z"/>
	<path class="st1" d="M188.4,45.2c-4.2-2.4-4.6-8.2-1.1-11.9c3.2-3.4,7.3-5,11.5-6.9c2.8-1.4,5.9-2.3,8.1-4.9
		c3.8-4.6,2.4-7.7-1.8-10.1s-8.6-3.1-13.4-1.4c-2,0.8-3.1,2.2-4.1,3.8c1.5,0.5,3,0.7,4.2,1.5c1.1,0.7,2,2,2.2,3.1
		c0.1,0.9-0.9,2.3-1.9,2.8c-5.1,3.1-10.9,0.1-13-4.5c-1.4-2.8,0.4-5.1,1.9-7.3c3.5-4.7,8.6-6.2,14-6.8c7.3-0.8,13.8,1.5,19.7,5.4
		c4.1,2.7,7,6.3,7.8,11.2c0.9,6.3-4.1,12.6-10.7,13.1c-4.2,0.4-8.4,0.4-12.7,0.8c-2.2,0.3-4.3,1.1-6.6,1.5c-4.5,0.9-5.5,5.5-4.7,8.9
		C188.1,44.3,188.3,44.7,188.4,45.2z"/>
	<path class="st1" d="M187.2,59.5c-1.4-0.7-3.4-1.5-5.3-2.6c-1.2-0.7-1.9-1.9-1.4-3.1C181,53,182,52.2,183,52
		c4.6-1.6,8.1,0.5,11.2,3.4c1.1,0.9,0.9,2-0.3,3C192.2,59.5,190.2,59.7,187.2,59.5z"/>
	<path class="st1" d="M141.9-2.5c-3.1-1.8-3.2-5.9-0.8-8.6c2.3-2.4,5.4-3.6,8.2-5c2-0.9,4.3-1.8,5.8-3.5c2.8-3.4,1.8-5.7-1.2-7.4
		c-3-1.8-6.3-2.3-9.7-0.9c-1.5,0.5-2.3,1.5-2.8,2.7c1.1,0.4,2.2,0.5,3,1.1c0.7,0.5,1.5,1.5,1.6,2.3c0.1,0.7-0.7,1.6-1.4,2.2
		c-3.8,2.3-8,0-9.5-3.2c-0.9-2.2,0.3-3.8,1.4-5.3c2.6-3.4,6.2-4.5,10.3-4.9c5.3-0.5,10,1.1,14.3,3.9c3,1.9,5.1,4.6,5.7,8.2
		c0.7,4.6-3,9.1-7.7,9.5c-3.1,0.3-6.1,0.3-9.2,0.5c-1.6,0.1-3.1,0.8-4.7,1.1c-3.2,0.7-4.1,4.1-3.4,6.5
		C141.8-3.1,141.8-2.9,141.9-2.5z"/>
	<path class="st1" d="M141.1,7.9c-0.9-0.4-2.4-1.1-3.9-1.9c-0.8-0.4-1.4-1.4-0.9-2.3c0.3-0.7,1.1-1.2,1.8-1.4
		c3.2-1.1,5.8,0.4,8.2,2.4c0.8,0.7,0.7,1.5-0.1,2.2C144.6,7.9,143.1,7.9,141.1,7.9z"/>
	<path class="st1" d="M208.3,85.1c-2-4.9-5.7-8.4-10.5-10.1c-3.9-1.5-8.2-2.2-12.4-3.2c-4.1-1.1-7.6,0-10.3,3
		c-2,2.2-3.5,4.7-5.1,7.3c-1.9,3.2-4.6,5.1-8.4,4.9c-3.6-0.1-6.2-2.6-8.6-4.9c-1.6-1.6-1.1-3.5-0.1-5.4c1.2-2.4,2.3-4.9,3.4-7.2
		c0.7-1.5,1.4-3,2.4-4.2c3-3.2,6.3-6.1,9.2-9.3c5.8-6.9,8.2-14.9,6.1-23.8c-2.7-10.5-10-14.6-20.4-12.7c-4.7,0.8-9.5,2-14.2,3.1
		c-2.7,0.5-4.3,0-5.4-2.7c-3.1-7.3-8.6-12.4-14.9-16.9c-3.4-2.4-5.7-5-4.7-9.5c1.8-8.4-6.2-16.2-14.5-14.2c-4.5,1.2-7.2,5.4-6.8,9.1
		c0.5,4.1-0.7,6.2-4.5,6.8C84.1-4.2,80.1-2.6,76-0.3c-5.1,3-7.3,2.8-11.3-1.8c-1.2-1.5-2.6-2.8-3.8-4.3c-2.6-2.8-5.7-3.1-8.9-1.8
		c-3.6,1.5-6.3,4.1-6.8,8.2c-0.4,4.9,3.6,10.8,8.5,12.4c1.9,0.7,3.9,1.6,4.3,3.9c0.3,1.9,0.3,4.1,0,5.9c-0.7,5.9-1.8,11.8-0.8,17.7
		c0.8,5.4,1.8,10.8,4.5,15.5c3.2,5.5,7,10.8,10.7,16.2c1.9,2.8,0.8,6.5-2.4,7.4c-3.6,0.9-7.4,1.4-11.2,1.8c-1.9,0.3-3.5-1.4-3.8-3.2
		c-0.4-2.3-0.8-4.6-1.4-6.8c-1.1-4.9-7.2-8.9-11.9-8.2c-2.7,0.4-5.5,0.7-8.2,0.8c-5.7,0.4-11.1,2.3-15.8,5.3
		c-1.9,1.2-3.5,3.4-3.1,5.7c0.9,4.3,3.1,8,6.8,10.7c6.2,4.6,11.1,10.4,14,17.7c2,5,5.4,9.2,9.6,12.4c3,2.2,6.1,4.1,9.1,6.1
		c3.1,2.2,4.1,5.3,2.3,8.1c-5,8.1-6.1,17.2-6.6,26.3c-0.3,4.5,0.9,9.1,1.6,13.6c1.1,7.7,3.1,15.1,7.3,21.8c1.6,2.4,2.2,5.1,2.2,8.1
		c-0.1,3.4,0.1,6.8,1.2,10.1c1.4,3.9,0.4,7-3.4,9.5c-3.5,2.3-5.4,6.2-5,10.3c0.5,4.7,2.8,8.6,7,11.5c7.4,5,15.3,6.6,23.6,3.6
		c3.1-1.1,5.9-2.7,8.8-4.5c3.2-2.2,7-2.3,9.3,0.8c0.8,1.1,1.9,1.9,2.8,3c6.3,6.3,13.8,9.9,23.4,9.5c1.4,0,3.2,0.3,5.1,0
		c1.8-0.3,3.5-1.1,5.1-1.6c3.9-1.4,7.4-6.2,7-9.9c-0.5-3.6-0.9-7.4-2-10.9c-1.4-4.5-1.2-8.4,2-12c0.8-0.9,1.2-2.2,1.8-3.4
		c2.2-4.6,1.5-9.5,1.8-14.2c0.1-1.8,0.7-3.5,1.5-5.1c2.3-4.6,5.1-8.9,7-13.8c2.8-7.4,4.1-15.1,3.1-23.2c-0.5-4.9-0.9-9.9-2.7-14.5
		c-1.4-3.5-3.2-6.9-4.6-10.4c-1.2-2.8,0.3-4.3,3.2-4.7c3.5-0.5,7.4-0.9,10.5-2.6c8.1-4.2,14.6-10.4,20.3-17.7
		c2.7-3.4,6.2-6.3,9.7-8.8c4.7-3.2,8.1-7.4,10.5-12.4C208.5,86.8,208.7,85.7,208.3,85.1z M85.3,34.9c-3,0-5.4-3.4-5.4-7.4
		s2.4-7.4,5.4-7.4s5.4,3.4,5.4,7.4S88.3,34.9,85.3,34.9z M107.9,25.5c-3,0-5.4-3.4-5.4-7.4s2.4-7.4,5.4-7.4s5.4,3.4,5.4,7.4
		S110.9,25.5,107.9,25.5z"/>
</g>
</svg>
